0
SECTION
  2
HEADER
0
ENDSEC
0
SECTION
2
CLASSES
0
ENDSEC
0
SECTION
2
TABLES
0
ENDSEC
0
SECTION
2
BLOCKS
0
ENDSEC
0
SECTION
2
ENTITIES
0
LINE
8
1
6
Continuous
62
0
10
777.97368421
20
0.00000000
30
0
11
850.00000000
21
0.00000000
31
0
0
ARC
8
1
6
Continuous
62
0
10
0.00000000
20
0.00000000
30
0
40
850.00000000
50
0.00000000
51
3.60000000
0
LINE
8
1
6
Continuous
62
0
10
848.32271916
20
53.37194160
30
0
11
776.43853086
21
48.84937181
31
0
0
ARC
8
1
6
Continuous
62
0
10
0.00000000
20
0.00000000
30
0
40
777.97368421
50
0.00000000
51
3.60000000
0
LINE
8
1
6
Continuous
62
0
10
785.48350277
20
8.22586470
30
0
11
785.46217460
21
10.26248104
31
0
0
LINE
8
1
6
Continuous
62
0
10
785.46217460
20
10.26248104
30
0
11
785.49165953
21
10.37731727
31
0
0
LINE
8
1
6
Continuous
62
0
10
785.49165953
20
10.37731727
30
0
11
836.67823106
21
11.44952310
31
0
0
ARC
8
1
6
Continuous
62
0
10
836.71229395
20
9.82337799
30
0
40
1.62650183
50
0.69241466
51
91.20000000
0
LINE
8
1
6
Continuous
62
0
10
838.33867701
20
9.84303365
30
0
11
838.35153013
21
8.77951762
31
0
0
LINE
8
1
6
Continuous
62
0
10
838.35153013
20
8.77951762
30
0
11
838.36095242
21
7.71596567
31
0
0
ARC
8
1
6
Continuous
62
0
10
836.73451442
20
7.70155662
30
0
40
1.62650183
50
-90.00000000
51
0.50758534
0
LINE
8
1
6
Continuous
62
0
10
836.73451442
20
6.07505479
30
0
11
785.53671437
21
6.07505479
31
0
0
LINE
8
1
6
Continuous
62
0
10
785.53671437
20
6.07505479
30
0
11
785.50483095
21
6.18924836
31
0
0
LINE
8
1
6
Continuous
62
0
10
785.50483095
20
6.18924836
30
0
11
785.48350277
21
8.22586470
31
0
0
LINE
8
1
6
Continuous
62
0
10
811.88991258
20
10.93028185
30
0
11
811.94075826
21
6.07505479
31
0
0
LINE
8
1
6
Continuous
62
0
10
777.90703332
20
10.18336089
30
0
11
785.46217460
21
10.26248104
31
0
0
LINE
8
1
6
Continuous
62
0
10
785.50483095
20
6.18924836
30
0
11
777.94968967
21
6.11012821
31
0
0
LINE
8
1
6
Continuous
62
0
10
785.13896375
20
24.67398596
30
0
11
785.07498858
21
26.70970897
31
0
0
LINE
8
1
6
Continuous
62
0
10
785.07498858
20
26.70970897
30
0
11
785.10206209
21
26.82513750
31
0
0
LINE
8
1
6
Continuous
62
0
10
785.10206209
20
26.82513750
30
0
11
836.25495298
21
28.96907885
31
0
0
ARC
8
1
6
Continuous
62
0
10
836.32306381
20
27.34400374
30
0
40
1.62650183
50
1.89241466
51
92.40000000
0
LINE
8
1
6
Continuous
62
0
10
837.94867854
20
27.39771548
30
0
11
837.98380144
21
26.33470188
31
0
0
LINE
8
1
6
Continuous
62
0
10
837.98380144
20
26.33470188
30
0
11
838.01549502
21
25.27158051
31
0
0
ARC
8
1
6
Continuous
62
0
10
836.38971548
20
25.22311308
30
0
40
1.62650183
50
-88.80000000
51
1.70758534
0
LINE
8
1
6
Continuous
62
0
10
836.42377837
20
23.59696797
30
0
11
785.23720683
21
22.52476214
31
0
0
LINE
8
1
6
Continuous
62
0
10
785.23720683
20
22.52476214
30
0
11
785.20293892
21
22.63826294
31
0
0
LINE
8
1
6
Continuous
62
0
10
785.20293892
20
22.63826294
30
0
11
785.13896375
21
24.67398596
31
0
0
LINE
8
1
6
Continuous
62
0
10
811.48294515
20
27.93082410
30
0
11
811.63545988
21
23.07772671
31
0
0
LINE
8
1
6
Continuous
62
0
10
777.52316123
20
26.47238323
30
0
11
785.07498858
21
26.70970897
31
0
0
LINE
8
1
6
Continuous
62
0
10
785.20293892
20
22.63826294
30
0
11
777.65111158
21
22.40093721
31
0
0
LINE
8
1
6
Continuous
62
0
10
784.45003683
20
41.11128439
30
0
11
784.34344272
21
43.14522114
31
0
0
LINE
8
1
6
Continuous
62
0
10
784.34344272
20
43.14522114
30
0
11
784.36809294
21
43.26119134
31
0
0
LINE
8
1
6
Continuous
62
0
10
784.36809294
20
43.26119134
30
0
11
835.46486584
21
46.47592781
31
0
0
ARC
8
1
6
Continuous
62
0
10
835.56699473
20
44.85263551
30
0
40
1.62650183
50
3.09241466
51
93.60000000
0
LINE
8
1
6
Continuous
62
0
10
837.19112808
20
44.94037978
30
0
11
837.24850536
21
43.87833487
31
0
0
LINE
8
1
6
Continuous
62
0
10
837.24850536
20
43.87833487
30
0
11
837.30245632
21
42.81611040
31
0
0
ARC
8
1
6
Continuous
62
0
10
835.67804837
20
42.73360584
30
0
40
1.62650183
50
-87.60000000
51
2.90758534
0
LINE
8
1
6
Continuous
62
0
10
835.74615920
20
41.10853073
30
0
11
784.59326831
21
38.96458938
31
0
0
LINE
8
1
6
Continuous
62
0
10
784.59326831
20
38.96458938
30
0
11
784.55663093
21
39.07734764
31
0
0
LINE
8
1
6
Continuous
62
0
10
784.55663093
20
39.07734764
30
0
11
784.45003683
21
41.11128439
31
0
0
LINE
8
1
6
Continuous
62
0
10
810.72003449
20
44.91911498
30
0
11
810.97415137
21
40.07027598
31
0
0
LINE
8
1
6
Continuous
62
0
10
776.79824179
20
42.74979391
30
0
11
784.34344272
21
43.14522114
31
0
0
LINE
8
1
6
Continuous
62
0
10
784.55663093
20
39.07734764
30
0
11
777.01143000
21
38.68192041
31
0
0
LINE
8
1
6
Continuous
62
0
10
777.97368421
20
0.00000000
30
0
11
850.00000000
21
0.00000000
31
0
0
LINE
8
1
6
Continuous
62
0
10
777.80306173
20
16.29265155
30
0
11
849.81358095
21
17.80105690
31
0
0
LINE
8
1
6
Continuous
62
0
10
777.29126911
20
32.57815661
30
0
11
849.25440558
21
35.59430567
31
0
0
LINE
8
1
6
Continuous
62
0
10
776.43853086
20
48.84937181
30
0
11
848.32271916
21
53.37194160
31
0
0
LINE
8
2
6
Continuous
62
0
10
764.04122671
20
24.01096286
30
0
11
773.11832444
21
24.29622215
31
0
0
ARC
8
2
6
Continuous
62
0
10
0.00000000
20
0.00000000
30
0
40
773.50000000
50
1.80000000
51
3.60000000
0
LINE
8
2
6
Continuous
62
0
10
771.97367444
20
48.56846686
30
0
11
762.91001591
21
47.99822980
31
0
0
ARC
8
2
6
Continuous
62
0
10
0.00000000
20
0.00000000
30
0
40
764.41842105
50
1.80000000
51
3.60000000
0
LINE
8
2
6
Continuous
62
0
10
764.04122671
20
24.01096286
30
0
11
773.11832444
21
24.29622215
31
0
0
ARC
8
2
6
Continuous
62
0
10
660.11394661
20
20.74491651
30
0
40
113.06016620
50
1.80000000
51
12.92549723
0
LINE
8
2
6
Continuous
62
0
10
770.30936594
20
46.03465235
30
0
11
763.05704174
21
45.60124438
31
0
0
ARC
8
2
6
Continuous
62
0
10
0.00000000
20
0.00000000
30
0
40
764.41842105
50
1.80000000
51
3.42000000
0
LINE
8
2
6
Continuous
62
0
10
764.04122671
20
24.01096286
30
0
11
773.11832444
21
24.29622215
31
0
0
ARC
8
2
6
Continuous
62
0
10
0.00000000
20
0.00000000
30
0
40
773.50000000
50
0.00000000
51
1.80000000
0
LINE
8
2
6
Continuous
62
0
10
773.50000000
20
0.00000000
30
0
11
764.41842105
21
-0.00000000
31
0
0
ARC
8
2
6
Continuous
62
0
10
0.00000000
20
0.00000000
30
0
40
764.41842105
50
-0.00000000
51
1.80000000
0
LINE
8
2
6
Continuous
62
0
10
764.04122671
20
24.01096286
30
0
11
773.11832444
21
24.29622215
31
0
0
ARC
8
2
6
Continuous
62
0
10
660.11394661
20
20.74491651
30
0
40
113.06016620
50
-9.32549723
51
1.80000000
0
LINE
8
2
6
Continuous
62
0
10
771.67987611
20
2.42431181
30
0
11
764.41464880
21
2.40148735
31
0
0
ARC
8
2
6
Continuous
62
0
10
0.00000000
20
0.00000000
30
0
40
764.41842105
50
0.18000000
51
1.80000000
0
LINE
8
2
6
Continuous
62
0
10
638.37000000
20
0.00000000
30
0
11
764.41842105
21
0.00000000
31
0
0
ARC
8
2
6
Continuous
62
0
10
0.00000000
20
0.00000000
30
0
40
764.41842105
50
0.00000000
51
3.60000000
0
LINE
8
2
6
Continuous
62
0
10
762.91001591
20
47.99822980
30
0
11
637.11032263
21
40.08358395
31
0
0
ARC
8
2
6
Continuous
62
0
10
0.00000000
20
0.00000000
30
0
40
638.37000000
50
0.00000000
51
3.60000000
0
LINE
8
2
6
Continuous
62
0
10
0.00000000
20
0.00000000
30
0
11
638.37000000
21
0.00000000
31
0
0
ARC
8
2
6
Continuous
62
0
10
0.00000000
20
0.00000000
30
0
40
638.37000000
50
0.00000000
51
3.60000000
0
LINE
8
2
6
Continuous
62
0
10
637.11032263
20
40.08358395
30
0
11
0.00000000
21
0.00000000
31
0
0
ENDSEC
0
SECTION
2
OBJECTS
0
ENDSEC
0
EOF
