0
SECTION
  2
HEADER
0
ENDSEC
0
SECTION
2
CLASSES
0
ENDSEC
0
SECTION
2
TABLES
0
ENDSEC
0
SECTION
2
BLOCKS
0
ENDSEC
0
SECTION
2
ENTITIES
0
LINE
8
1
6
Continuous
62
0
10
51.40000000
20
0.00000000
30
0
11
85.00000000
21
0.00000000
31
0
0
ARC
8
1
6
Continuous
62
0
10
0.00000000
20
0.00000000
30
0
40
85.00000000
50
0.00000000
51
90.00000000
0
LINE
8
1
6
Continuous
62
0
10
0.00000000
20
85.00000000
30
0
11
0.00000000
21
51.40000000
31
0
0
ARC
8
1
6
Continuous
62
0
10
0.00000000
20
0.00000000
30
0
40
51.40000000
50
0.00000000
51
90.00000000
0
LINE
8
1
6
Continuous
62
0
10
51.68829203
20
4.52213959
30
0
11
51.58274888
21
5.72850339
31
0
0
LINE
8
1
6
Continuous
62
0
10
51.58274888
20
5.72850339
30
0
11
52.38644371
21
6.79504245
31
0
0
LINE
8
1
6
Continuous
62
0
10
52.38644371
20
6.79504245
30
0
11
67.06436329
21
9.38315569
31
0
0
ARC
8
1
6
Continuous
62
0
10
67.23801147
20
8.39834794
30
0
40
1.00000000
50
6.49807760
51
100.00000000
0
LINE
8
1
6
Continuous
62
0
10
68.23158713
20
8.51151782
30
0
11
68.51827133
21
5.99457199
31
0
0
LINE
8
1
6
Continuous
62
0
10
68.51827133
20
5.99457199
30
0
11
68.67300556
21
3.46608203
31
0
0
ARC
8
1
6
Continuous
62
0
10
67.67487281
20
3.40500000
30
0
40
1.00000000
50
-90.00000000
51
3.50192240
0
LINE
8
1
6
Continuous
62
0
10
67.67487281
20
2.40500000
30
0
11
52.77052265
21
2.40500000
31
0
0
LINE
8
1
6
Continuous
62
0
10
52.77052265
20
2.40500000
30
0
11
51.79383519
21
3.31577579
31
0
0
LINE
8
1
6
Continuous
62
0
10
51.79383519
20
3.31577579
30
0
11
51.68829203
21
4.52213959
31
0
0
LINE
8
1
6
Continuous
62
0
10
59.80717314
20
8.10351726
30
0
11
60.30572880
21
2.40500000
31
0
0
LINE
8
1
6
Continuous
62
0
10
51.08465153
20
5.68492552
30
0
11
51.58274888
21
5.72850339
31
0
0
LINE
8
1
6
Continuous
62
0
10
51.79383519
20
3.31577579
30
0
11
51.29573784
21
3.27219792
31
0
0
LINE
8
1
6
Continuous
62
0
10
50.11776944
20
13.42901585
30
0
11
49.80434684
21
14.59872489
31
0
0
LINE
8
1
6
Continuous
62
0
10
49.80434684
20
14.59872489
30
0
11
50.41062918
21
15.78862097
31
0
0
LINE
8
1
6
Continuous
62
0
10
50.41062918
20
15.78862097
30
0
11
64.41613704
21
20.88620894
31
0
0
ARC
8
1
6
Continuous
62
0
10
64.75815718
20
19.94651632
30
0
40
1.00000000
50
16.49807760
51
110.00000000
0
LINE
8
1
6
Continuous
62
0
10
65.71698644
20
20.23049950
30
0
11
66.43637833
21
17.80157392
31
0
0
LINE
8
1
6
Continuous
62
0
10
66.43637833
20
17.80157392
30
0
11
67.02782947
21
15.33836673
31
0
0
ARC
8
1
6
Continuous
62
0
10
66.05546738
20
15.10488874
30
0
40
1.00000000
50
-80.00000000
51
13.50192240
0
LINE
8
1
6
Continuous
62
0
10
66.22911556
20
14.12008098
30
0
11
51.55119597
21
11.53196774
31
0
0
LINE
8
1
6
Continuous
62
0
10
51.55119597
20
11.53196774
30
0
11
50.43119203
21
12.25930680
31
0
0
LINE
8
1
6
Continuous
62
0
10
50.43119203
20
12.25930680
30
0
11
50.11776944
21
13.42901585
31
0
0
LINE
8
1
6
Continuous
62
0
10
57.49140679
20
18.36581325
30
0
11
58.97192541
21
12.84044255
31
0
0
LINE
8
1
6
Continuous
62
0
10
49.32138393
20
14.46931537
30
0
11
49.80434684
21
14.59872489
31
0
0
LINE
8
1
6
Continuous
62
0
10
50.43119203
20
12.25930680
30
0
11
49.94822912
21
12.12989728
31
0
0
LINE
8
1
6
Continuous
62
0
10
47.02444378
20
21.92785825
30
0
11
46.51266493
21
23.02537153
31
0
0
LINE
8
1
6
Continuous
62
0
10
46.51266493
20
23.02537153
30
0
11
46.90311319
21
24.30247023
31
0
0
LINE
8
1
6
Continuous
62
0
10
46.90311319
20
24.30247023
30
0
11
59.81065905
21
31.75464531
31
0
0
ARC
8
1
6
Continuous
62
0
10
60.31065905
20
30.88861991
30
0
40
1.00000000
50
26.49807760
51
120.00000000
0
LINE
8
1
6
Continuous
62
0
10
61.20560838
20
31.33478769
30
0
11
62.33584959
21
29.06768404
31
0
0
LINE
8
1
6
Continuous
62
0
10
62.33584959
20
29.06768404
30
0
11
63.34604670
21
26.74460291
31
0
0
ARC
8
1
6
Continuous
62
0
10
62.42900000
20
26.34582307
30
0
40
1.00000000
50
-70.00000000
51
23.50192240
0
LINE
8
1
6
Continuous
62
0
10
62.77102015
20
25.40613045
30
0
11
48.76551229
21
20.30854247
31
0
0
LINE
8
1
6
Continuous
62
0
10
48.76551229
20
20.30854247
30
0
11
47.53622262
21
20.83034498
31
0
0
LINE
8
1
6
Continuous
62
0
10
47.53622262
20
20.83034498
30
0
11
47.02444378
21
21.92785825
31
0
0
LINE
8
1
6
Continuous
62
0
10
53.42879313
20
28.07007330
30
0
11
55.84628990
21
22.88573476
31
0
0
LINE
8
1
6
Continuous
62
0
10
46.05951104
20
22.81406240
30
0
11
46.51266493
21
23.02537153
31
0
0
LINE
8
1
6
Continuous
62
0
10
47.53622262
20
20.83034498
30
0
11
47.08306873
21
20.61903585
31
0
0
LINE
8
1
6
Continuous
62
0
10
42.50230419
20
29.76043378
30
0
11
41.80771923
21
30.75240390
31
0
0
LINE
8
1
6
Continuous
62
0
10
41.80771923
20
30.75240390
30
0
11
41.97046984
21
32.07790123
31
0
0
LINE
8
1
6
Continuous
62
0
10
41.97046984
20
32.07790123
30
0
11
53.38786446
21
41.65823284
31
0
0
ARC
8
1
6
Continuous
62
0
10
54.03065207
20
40.89218840
30
0
40
1.00000000
50
36.49807760
51
130.00000000
0
LINE
8
1
6
Continuous
62
0
10
54.83452888
20
41.48698422
30
0
11
56.34127761
21
39.45058729
31
0
0
LINE
8
1
6
Continuous
62
0
10
56.34127761
20
39.45058729
30
0
11
57.73952635
21
37.33821787
31
0
0
ARC
8
1
6
Continuous
62
0
10
56.90565905
20
36.78625290
30
0
40
1.00000000
50
-60.00000000
51
33.50192240
0
LINE
8
1
6
Continuous
62
0
10
57.40565905
20
35.92022750
30
0
11
44.49811319
21
28.46805242
31
0
0
LINE
8
1
6
Continuous
62
0
10
44.49811319
20
28.46805242
30
0
11
43.19688914
21
28.76846366
31
0
0
LINE
8
1
6
Continuous
62
0
10
43.19688914
20
28.76846366
30
0
11
42.50230419
21
29.76043378
31
0
0
LINE
8
1
6
Continuous
62
0
10
47.74277264
20
36.92143838
30
0
11
51.02379313
21
32.23565550
31
0
0
LINE
8
1
6
Continuous
62
0
10
41.39814321
20
30.46561568
30
0
11
41.80771923
21
30.75240390
31
0
0
LINE
8
1
6
Continuous
62
0
10
43.19688914
20
28.76846366
30
0
11
42.78731312
21
28.48167545
31
0
0
LINE
8
1
6
Continuous
62
0
10
36.68875359
20
36.68875359
30
0
11
35.83246714
21
37.54504004
31
0
0
LINE
8
1
6
Continuous
62
0
10
35.83246714
20
37.54504004
30
0
11
35.76257500
21
38.87866144
31
0
0
LINE
8
1
6
Continuous
62
0
10
35.76257500
20
38.87866144
30
0
11
45.34290661
21
50.29605605
31
0
0
ARC
8
1
6
Continuous
62
0
10
46.10895106
20
49.65326844
30
0
40
1.00000000
50
46.49807760
51
140.00000000
0
LINE
8
1
6
Continuous
62
0
10
46.79732997
20
50.37861972
30
0
11
48.63480441
21
48.63480441
31
0
0
LINE
8
1
6
Continuous
62
0
10
48.63480441
20
48.63480441
30
0
11
50.37861972
21
46.79732997
31
0
0
ARC
8
1
6
Continuous
62
0
10
49.65326844
20
46.10895106
30
0
40
1.00000000
50
-50.00000000
51
43.50192240
0
LINE
8
1
6
Continuous
62
0
10
50.29605605
20
45.34290661
30
0
11
38.87866144
21
35.76257500
31
0
0
LINE
8
1
6
Continuous
62
0
10
38.87866144
20
35.76257500
30
0
11
37.54504004
21
35.83246714
31
0
0
LINE
8
1
6
Continuous
62
0
10
37.54504004
20
35.83246714
30
0
11
36.68875359
21
36.68875359
31
0
0
LINE
8
1
6
Continuous
62
0
10
40.60611215
20
44.65096423
30
0
11
44.65096423
21
40.60611215
31
0
0
LINE
8
1
6
Continuous
62
0
10
35.47891375
20
37.19148665
30
0
11
35.83246714
21
37.54504004
31
0
0
LINE
8
1
6
Continuous
62
0
10
37.54504004
20
35.83246714
30
0
11
37.19148665
21
35.47891375
31
0
0
LINE
8
1
6
Continuous
62
0
10
29.76043378
20
42.50230419
30
0
11
28.76846366
21
43.19688914
31
0
0
LINE
8
1
6
Continuous
62
0
10
28.76846366
20
43.19688914
30
0
11
28.46805242
21
44.49811319
31
0
0
LINE
8
1
6
Continuous
62
0
10
28.46805242
20
44.49811319
30
0
11
35.92022750
21
57.40565905
31
0
0
ARC
8
1
6
Continuous
62
0
10
36.78625290
20
56.90565905
30
0
40
1.00000000
50
56.49807760
51
150.00000000
0
LINE
8
1
6
Continuous
62
0
10
37.33821787
20
57.73952635
30
0
11
39.45058729
21
56.34127761
31
0
0
LINE
8
1
6
Continuous
62
0
10
39.45058729
20
56.34127761
30
0
11
41.48698422
21
54.83452888
31
0
0
ARC
8
1
6
Continuous
62
0
10
40.89218840
20
54.03065207
30
0
40
1.00000000
50
-40.00000000
51
53.50192240
0
LINE
8
1
6
Continuous
62
0
10
41.65823284
20
53.38786446
30
0
11
32.07790123
21
41.97046984
31
0
0
LINE
8
1
6
Continuous
62
0
10
32.07790123
20
41.97046984
30
0
11
30.75240390
21
41.80771923
31
0
0
LINE
8
1
6
Continuous
62
0
10
30.75240390
20
41.80771923
30
0
11
29.76043378
21
42.50230419
31
0
0
LINE
8
1
6
Continuous
62
0
10
32.23565550
20
51.02379313
30
0
11
36.92143838
21
47.74277264
31
0
0
LINE
8
1
6
Continuous
62
0
10
28.48167545
20
42.78731312
30
0
11
28.76846366
21
43.19688914
31
0
0
LINE
8
1
6
Continuous
62
0
10
30.75240390
20
41.80771923
30
0
11
30.46561568
21
41.39814321
31
0
0
LINE
8
1
6
Continuous
62
0
10
21.92785825
20
47.02444378
30
0
11
20.83034498
21
47.53622262
31
0
0
LINE
8
1
6
Continuous
62
0
10
20.83034498
20
47.53622262
30
0
11
20.30854247
21
48.76551229
31
0
0
LINE
8
1
6
Continuous
62
0
10
20.30854247
20
48.76551229
30
0
11
25.40613045
21
62.77102015
31
0
0
ARC
8
1
6
Continuous
62
0
10
26.34582307
20
62.42900000
30
0
40
1.00000000
50
66.49807760
51
160.00000000
0
LINE
8
1
6
Continuous
62
0
10
26.74460291
20
63.34604670
30
0
11
29.06768404
21
62.33584959
31
0
0
LINE
8
1
6
Continuous
62
0
10
29.06768404
20
62.33584959
30
0
11
31.33478769
21
61.20560838
31
0
0
ARC
8
1
6
Continuous
62
0
10
30.88861991
20
60.31065905
30
0
40
1.00000000
50
-30.00000000
51
63.50192240
0
LINE
8
1
6
Continuous
62
0
10
31.75464531
20
59.81065905
30
0
11
24.30247023
21
46.90311319
31
0
0
LINE
8
1
6
Continuous
62
0
10
24.30247023
20
46.90311319
30
0
11
23.02537153
21
46.51266493
31
0
0
LINE
8
1
6
Continuous
62
0
10
23.02537153
20
46.51266493
30
0
11
21.92785825
21
47.02444378
31
0
0
LINE
8
1
6
Continuous
62
0
10
22.88573476
20
55.84628990
30
0
11
28.07007330
21
53.42879313
31
0
0
LINE
8
1
6
Continuous
62
0
10
20.61903585
20
47.08306873
30
0
11
20.83034498
21
47.53622262
31
0
0
LINE
8
1
6
Continuous
62
0
10
23.02537153
20
46.51266493
30
0
11
22.81406240
21
46.05951104
31
0
0
LINE
8
1
6
Continuous
62
0
10
13.42901585
20
50.11776944
30
0
11
12.25930680
21
50.43119203
31
0
0
LINE
8
1
6
Continuous
62
0
10
12.25930680
20
50.43119203
30
0
11
11.53196774
21
51.55119597
31
0
0
LINE
8
1
6
Continuous
62
0
10
11.53196774
20
51.55119597
30
0
11
14.12008098
21
66.22911556
31
0
0
ARC
8
1
6
Continuous
62
0
10
15.10488874
20
66.05546738
30
0
40
1.00000000
50
76.49807760
51
170.00000000
0
LINE
8
1
6
Continuous
62
0
10
15.33836673
20
67.02782947
30
0
11
17.80157392
21
66.43637833
31
0
0
LINE
8
1
6
Continuous
62
0
10
17.80157392
20
66.43637833
30
0
11
20.23049950
21
65.71698644
31
0
0
ARC
8
1
6
Continuous
62
0
10
19.94651632
20
64.75815718
30
0
40
1.00000000
50
-20.00000000
51
73.50192240
0
LINE
8
1
6
Continuous
62
0
10
20.88620894
20
64.41613704
30
0
11
15.78862097
21
50.41062918
31
0
0
LINE
8
1
6
Continuous
62
0
10
15.78862097
20
50.41062918
30
0
11
14.59872489
21
49.80434684
31
0
0
LINE
8
1
6
Continuous
62
0
10
14.59872489
20
49.80434684
30
0
11
13.42901585
21
50.11776944
31
0
0
LINE
8
1
6
Continuous
62
0
10
12.84044255
20
58.97192541
30
0
11
18.36581325
21
57.49140679
31
0
0
LINE
8
1
6
Continuous
62
0
10
12.12989728
20
49.94822912
30
0
11
12.25930680
21
50.43119203
31
0
0
LINE
8
1
6
Continuous
62
0
10
14.59872489
20
49.80434684
30
0
11
14.46931537
21
49.32138393
31
0
0
LINE
8
1
6
Continuous
62
0
10
4.52213959
20
51.68829203
30
0
11
3.31577579
21
51.79383519
31
0
0
LINE
8
1
6
Continuous
62
0
10
3.31577579
20
51.79383519
30
0
11
2.40500000
21
52.77052265
31
0
0
LINE
8
1
6
Continuous
62
0
10
2.40500000
20
52.77052265
30
0
11
2.40500000
21
67.67487281
31
0
0
ARC
8
1
6
Continuous
62
0
10
3.40500000
20
67.67487281
30
0
40
1.00000000
50
86.49807760
51
180.00000000
0
LINE
8
1
6
Continuous
62
0
10
3.46608203
20
68.67300556
30
0
11
5.99457199
21
68.51827133
31
0
0
LINE
8
1
6
Continuous
62
0
10
5.99457199
20
68.51827133
30
0
11
8.51151782
21
68.23158713
31
0
0
ARC
8
1
6
Continuous
62
0
10
8.39834794
20
67.23801147
30
0
40
1.00000000
50
-10.00000000
51
83.50192240
0
LINE
8
1
6
Continuous
62
0
10
9.38315569
20
67.06436329
30
0
11
6.79504245
21
52.38644371
31
0
0
LINE
8
1
6
Continuous
62
0
10
6.79504245
20
52.38644371
30
0
11
5.72850339
21
51.58274888
31
0
0
LINE
8
1
6
Continuous
62
0
10
5.72850339
20
51.58274888
30
0
11
4.52213959
21
51.68829203
31
0
0
LINE
8
1
6
Continuous
62
0
10
2.40500000
20
60.30572880
30
0
11
8.10351726
21
59.80717314
31
0
0
LINE
8
1
6
Continuous
62
0
10
3.27219792
20
51.29573784
30
0
11
3.31577579
21
51.79383519
31
0
0
LINE
8
1
6
Continuous
62
0
10
5.72850339
20
51.58274888
30
0
11
5.68492552
21
51.08465153
31
0
0
LINE
8
1
6
Continuous
62
0
10
51.40000000
20
0.00000000
30
0
11
85.00000000
21
0.00000000
31
0
0
LINE
8
1
6
Continuous
62
0
10
50.61911850
20
8.92551633
30
0
11
83.70865901
21
14.76009510
31
0
0
LINE
8
1
6
Continuous
62
0
10
48.30020071
20
17.57983537
30
0
11
79.87387277
21
29.07171218
31
0
0
LINE
8
1
6
Continuous
62
0
10
44.51370575
20
25.70000000
30
0
11
73.61215932
21
42.50000000
31
0
0
LINE
8
1
6
Continuous
62
0
10
39.37468438
20
33.03928314
30
0
11
65.11377767
21
54.63694682
31
0
0
LINE
8
1
6
Continuous
62
0
10
33.03928314
20
39.37468438
30
0
11
54.63694682
21
65.11377767
31
0
0
LINE
8
1
6
Continuous
62
0
10
25.70000000
20
44.51370575
30
0
11
42.50000000
21
73.61215932
31
0
0
LINE
8
1
6
Continuous
62
0
10
17.57983537
20
48.30020071
30
0
11
29.07171218
21
79.87387277
31
0
0
LINE
8
1
6
Continuous
62
0
10
8.92551633
20
50.61911850
30
0
11
14.76009510
21
83.70865901
31
0
0
LINE
8
1
6
Continuous
62
0
10
0.00000000
20
51.40000000
30
0
11
0.00000000
21
85.00000000
31
0
0
LINE
8
2
6
Continuous
62
0
10
33.99731292
20
33.99731292
30
0
11
29.00210393
21
38.99252190
31
0
0
ARC
8
2
6
Continuous
62
0
10
28.64855054
20
38.63896851
30
0
40
0.50000000
50
45.00000000
51
135.00000000
0
LINE
8
2
6
Continuous
62
0
10
28.29499715
20
38.99252190
30
0
11
27.51684239
21
38.21436714
31
0
0
ARC
8
2
6
Continuous
62
0
10
27.87039578
20
37.86081375
30
0
40
0.50000000
50
135.00000000
51
-135.00000000
0
LINE
8
2
6
Continuous
62
0
10
27.51684239
20
37.50726036
30
0
11
32.51205137
21
32.51205137
31
0
0
LINE
8
2
6
Continuous
62
0
10
28.47177385
20
40.08351216
30
0
11
28.47177385
21
40.47667414
31
0
0
ARC
8
2
6
Continuous
62
0
10
26.17365543
20
40.47667414
30
0
40
2.29811842
50
-0.00000000
51
57.11185594
0
ARC
8
2
6
Continuous
62
0
10
27.05194364
20
41.83491720
30
0
40
0.68064681
50
57.11185594
51
180.00000000
0
LINE
8
2
6
Continuous
62
0
10
26.37129683
20
41.83491720
30
0
11
26.37129683
21
38.65280592
31
0
0
LINE
8
2
6
Continuous
62
0
10
26.37129683
20
38.65280592
30
0
11
26.45618222
21
38.56792053
31
0
0
ARC
8
2
6
Continuous
62
0
10
26.80973561
20
38.92147392
30
0
40
0.50000000
50
-135.00000000
51
-45.00000000
0
LINE
8
2
6
Continuous
62
0
10
27.16328900
20
38.56792053
30
0
11
28.32532724
21
39.72995877
31
0
0
ARC
8
2
6
Continuous
62
0
10
27.97177385
20
40.08351216
30
0
40
0.50000000
50
-45.00000000
51
0.00000000
0
LINE
8
2
6
Continuous
62
0
10
28.69570999
20
28.69570999
30
0
11
20.33631483
21
37.05510514
31
0
0
ARC
8
2
6
Continuous
62
0
10
19.98276144
20
36.70155175
30
0
40
0.50000000
50
45.00000000
51
135.00000000
0
LINE
8
2
6
Continuous
62
0
10
19.62920805
20
37.05510514
30
0
11
17.06873943
21
34.49463653
31
0
0
ARC
8
2
6
Continuous
62
0
10
17.42229282
20
34.14108313
30
0
40
0.50000000
50
135.00000000
51
-135.00000000
0
LINE
8
2
6
Continuous
62
0
10
17.06873943
20
33.78752974
30
0
11
25.42813459
21
25.42813459
31
0
0
LINE
8
2
6
Continuous
62
0
10
19.62920805
20
38.67642549
30
0
11
19.62920805
21
43.77062903
31
0
0
ARC
8
2
6
Continuous
62
0
10
15.59503513
20
43.77062903
30
0
40
4.03417292
50
0.00000000
51
70.38952769
0
ARC
8
2
6
Continuous
62
0
10
16.46129297
20
46.20195735
30
0
40
1.45313436
50
70.38952769
51
-180.00000000
0
LINE
8
2
6
Continuous
62
0
10
15.00815861
20
46.20195735
30
0
11
15.00815861
21
35.84811057
31
0
0
LINE
8
2
6
Continuous
62
0
10
15.00815861
20
35.84811057
30
0
11
15.65452587
21
35.20174331
31
0
0
ARC
8
2
6
Continuous
62
0
10
16.00807926
20
35.55529670
30
0
40
0.50000000
50
-135.00000000
51
-45.00000000
0
LINE
8
2
6
Continuous
62
0
10
16.36163265
20
35.20174331
30
0
11
19.48276144
21
38.32287210
31
0
0
ARC
8
2
6
Continuous
62
0
10
19.12920805
20
38.67642549
30
0
40
0.50000000
50
-45.00000000
51
-0.00000000
0
LINE
8
2
6
Continuous
62
0
10
21.64135304
20
21.64135304
30
0
11
10.37218808
21
32.91051799
31
0
0
ARC
8
2
6
Continuous
62
0
10
10.01863469
20
32.55696460
30
0
40
0.50000000
50
45.00000000
51
135.00000000
0
LINE
8
2
6
Continuous
62
0
10
9.66508130
20
32.91051799
30
0
11
5.54508806
21
28.79052476
31
0
0
ARC
8
2
6
Continuous
62
0
10
5.89864145
20
28.43697136
30
0
40
0.50000000
50
135.00000000
51
-135.00000000
0
LINE
8
2
6
Continuous
62
0
10
5.54508806
20
28.08341797
30
0
11
16.81425302
21
16.81425302
31
0
0
LINE
8
2
6
Continuous
62
0
10
9.48830460
20
35.06216842
30
0
11
9.48830460
21
46.02833920
31
0
0
ARC
8
2
6
Continuous
62
0
10
5.32346744
20
46.02833920
30
0
40
4.16483716
50
0.00000000
51
83.40269392
0
ARC
8
2
6
Continuous
62
0
10
5.47836570
20
47.36763723
30
0
40
2.81661141
50
83.40269392
51
180.00000000
0
LINE
8
2
6
Continuous
62
0
10
2.66175429
20
47.36763723
30
0
11
2.66175429
21
30.96675175
31
0
0
LINE
8
2
6
Continuous
62
0
10
2.66175429
20
30.96675175
30
0
11
3.77732111
21
29.85118493
31
0
0
ARC
8
2
6
Continuous
62
0
10
4.13087450
20
30.20473832
30
0
40
0.50000000
50
-135.00000000
51
-45.00000000
0
LINE
8
2
6
Continuous
62
0
10
4.48442789
20
29.85118493
30
0
11
9.34185799
21
34.70861503
31
0
0
ARC
8
2
6
Continuous
62
0
10
8.98830460
20
35.06216842
30
0
40
0.50000000
50
-45.00000000
51
0.00000000
0
LINE
8
2
6
Continuous
62
0
10
32.58276205
20
32.58276205
30
0
11
33.99731292
21
33.99731292
31
0
0
LINE
8
2
6
Continuous
62
0
10
33.99731292
20
33.99731292
30
0
11
32.65381003
21
35.34081580
31
0
0
LINE
8
2
6
Continuous
62
0
10
32.65381003
20
35.34081580
30
0
11
31.23925917
21
33.92626494
31
0
0
LINE
8
2
6
Continuous
62
0
10
31.23925917
20
33.92626494
30
0
11
32.58276205
21
32.58276205
31
0
0
LINE
8
2
6
Continuous
62
0
10
25.49884527
20
25.49884527
30
0
11
28.69570999
21
28.69570999
31
0
0
LINE
8
2
6
Continuous
62
0
10
28.69570999
20
28.69570999
30
0
11
24.05001843
21
33.34140154
31
0
0
LINE
8
2
6
Continuous
62
0
10
24.05001843
20
33.34140154
30
0
11
20.85315371
21
30.14453682
31
0
0
LINE
8
2
6
Continuous
62
0
10
20.85315371
20
30.14453682
30
0
11
25.49884527
21
25.49884527
31
0
0
LINE
8
2
6
Continuous
62
0
10
16.88496369
20
16.88496369
30
0
11
21.64135304
21
21.64135304
31
0
0
LINE
8
2
6
Continuous
62
0
10
21.64135304
20
21.64135304
30
0
11
14.19551863
21
29.08718744
31
0
0
LINE
8
2
6
Continuous
62
0
10
14.19551863
20
29.08718744
30
0
11
9.43912929
21
24.33079810
31
0
0
LINE
8
2
6
Continuous
62
0
10
9.43912929
20
24.33079810
30
0
11
16.88496369
21
16.88496369
31
0
0
LINE
8
2
6
Continuous
62
0
10
33.99731292
20
33.99731292
30
0
11
38.99252190
21
29.00210393
31
0
0
ARC
8
2
6
Continuous
62
0
10
38.63896851
20
28.64855054
30
0
40
0.50000000
50
-45.00000000
51
45.00000000
0
LINE
8
2
6
Continuous
62
0
10
38.99252190
20
28.29499715
30
0
11
38.21436714
21
27.51684239
31
0
0
ARC
8
2
6
Continuous
62
0
10
37.86081375
20
27.87039578
30
0
40
0.50000000
50
-135.00000000
51
-45.00000000
0
LINE
8
2
6
Continuous
62
0
10
37.50726036
20
27.51684239
30
0
11
32.51205137
21
32.51205137
31
0
0
LINE
8
2
6
Continuous
62
0
10
40.08351216
20
28.47177385
30
0
11
40.47667414
21
28.47177385
31
0
0
ARC
8
2
6
Continuous
62
0
10
40.47667414
20
26.17365543
30
0
40
2.29811842
50
32.88814406
51
90.00000000
0
ARC
8
2
6
Continuous
62
0
10
41.83491720
20
27.05194364
30
0
40
0.68064681
50
-90.00000000
51
32.88814406
0
LINE
8
2
6
Continuous
62
0
10
41.83491720
20
26.37129683
30
0
11
38.65280592
21
26.37129683
31
0
0
LINE
8
2
6
Continuous
62
0
10
38.65280592
20
26.37129683
30
0
11
38.56792053
21
26.45618222
31
0
0
ARC
8
2
6
Continuous
62
0
10
38.92147392
20
26.80973561
30
0
40
0.50000000
50
135.00000000
51
-135.00000000
0
LINE
8
2
6
Continuous
62
0
10
38.56792053
20
27.16328900
30
0
11
39.72995877
21
28.32532724
31
0
0
ARC
8
2
6
Continuous
62
0
10
40.08351216
20
27.97177385
30
0
40
0.50000000
50
90.00000000
51
135.00000000
0
LINE
8
2
6
Continuous
62
0
10
28.69570999
20
28.69570999
30
0
11
37.05510514
21
20.33631483
31
0
0
ARC
8
2
6
Continuous
62
0
10
36.70155175
20
19.98276144
30
0
40
0.50000000
50
-45.00000000
51
45.00000000
0
LINE
8
2
6
Continuous
62
0
10
37.05510514
20
19.62920805
30
0
11
34.49463653
21
17.06873943
31
0
0
ARC
8
2
6
Continuous
62
0
10
34.14108313
20
17.42229282
30
0
40
0.50000000
50
-135.00000000
51
-45.00000000
0
LINE
8
2
6
Continuous
62
0
10
33.78752974
20
17.06873943
30
0
11
25.42813459
21
25.42813459
31
0
0
LINE
8
2
6
Continuous
62
0
10
38.67642549
20
19.62920805
30
0
11
43.77062903
21
19.62920805
31
0
0
ARC
8
2
6
Continuous
62
0
10
43.77062903
20
15.59503513
30
0
40
4.03417292
50
19.61047231
51
90.00000000
0
ARC
8
2
6
Continuous
62
0
10
46.20195735
20
16.46129297
30
0
40
1.45313436
50
-90.00000000
51
19.61047231
0
LINE
8
2
6
Continuous
62
0
10
46.20195735
20
15.00815861
30
0
11
35.84811057
21
15.00815861
31
0
0
LINE
8
2
6
Continuous
62
0
10
35.84811057
20
15.00815861
30
0
11
35.20174331
21
15.65452587
31
0
0
ARC
8
2
6
Continuous
62
0
10
35.55529670
20
16.00807926
30
0
40
0.50000000
50
135.00000000
51
-135.00000000
0
LINE
8
2
6
Continuous
62
0
10
35.20174331
20
16.36163265
30
0
11
38.32287210
21
19.48276144
31
0
0
ARC
8
2
6
Continuous
62
0
10
38.67642549
20
19.12920805
30
0
40
0.50000000
50
90.00000000
51
135.00000000
0
LINE
8
2
6
Continuous
62
0
10
21.64135304
20
21.64135304
30
0
11
32.91051799
21
10.37218808
31
0
0
ARC
8
2
6
Continuous
62
0
10
32.55696460
20
10.01863469
30
0
40
0.50000000
50
-45.00000000
51
45.00000000
0
LINE
8
2
6
Continuous
62
0
10
32.91051799
20
9.66508130
30
0
11
28.79052476
21
5.54508806
31
0
0
ARC
8
2
6
Continuous
62
0
10
28.43697136
20
5.89864145
30
0
40
0.50000000
50
-135.00000000
51
-45.00000000
0
LINE
8
2
6
Continuous
62
0
10
28.08341797
20
5.54508806
30
0
11
16.81425302
21
16.81425302
31
0
0
LINE
8
2
6
Continuous
62
0
10
35.06216842
20
9.48830460
30
0
11
46.02833920
21
9.48830460
31
0
0
ARC
8
2
6
Continuous
62
0
10
46.02833920
20
5.32346744
30
0
40
4.16483716
50
6.59730608
51
90.00000000
0
ARC
8
2
6
Continuous
62
0
10
47.36763723
20
5.47836570
30
0
40
2.81661141
50
-90.00000000
51
6.59730608
0
LINE
8
2
6
Continuous
62
0
10
47.36763723
20
2.66175429
30
0
11
30.96675175
21
2.66175429
31
0
0
LINE
8
2
6
Continuous
62
0
10
30.96675175
20
2.66175429
30
0
11
29.85118493
21
3.77732111
31
0
0
ARC
8
2
6
Continuous
62
0
10
30.20473832
20
4.13087450
30
0
40
0.50000000
50
135.00000000
51
-135.00000000
0
LINE
8
2
6
Continuous
62
0
10
29.85118493
20
4.48442789
30
0
11
34.70861503
21
9.34185799
31
0
0
ARC
8
2
6
Continuous
62
0
10
35.06216842
20
8.98830460
30
0
40
0.50000000
50
90.00000000
51
135.00000000
0
LINE
8
2
6
Continuous
62
0
10
32.58276205
20
32.58276205
30
0
11
33.99731292
21
33.99731292
31
0
0
LINE
8
2
6
Continuous
62
0
10
33.99731292
20
33.99731292
30
0
11
35.34081580
21
32.65381003
31
0
0
LINE
8
2
6
Continuous
62
0
10
35.34081580
20
32.65381003
30
0
11
33.92626494
21
31.23925917
31
0
0
LINE
8
2
6
Continuous
62
0
10
33.92626494
20
31.23925917
30
0
11
32.58276205
21
32.58276205
31
0
0
LINE
8
2
6
Continuous
62
0
10
25.49884527
20
25.49884527
30
0
11
28.69570999
21
28.69570999
31
0
0
LINE
8
2
6
Continuous
62
0
10
28.69570999
20
28.69570999
30
0
11
33.34140154
21
24.05001843
31
0
0
LINE
8
2
6
Continuous
62
0
10
33.34140154
20
24.05001843
30
0
11
30.14453682
21
20.85315371
31
0
0
LINE
8
2
6
Continuous
62
0
10
30.14453682
20
20.85315371
30
0
11
25.49884527
21
25.49884527
31
0
0
LINE
8
2
6
Continuous
62
0
10
16.88496369
20
16.88496369
30
0
11
21.64135304
21
21.64135304
31
0
0
LINE
8
2
6
Continuous
62
0
10
21.64135304
20
21.64135304
30
0
11
29.08718744
21
14.19551863
31
0
0
LINE
8
2
6
Continuous
62
0
10
29.08718744
20
14.19551863
30
0
11
24.33079810
21
9.43912929
31
0
0
LINE
8
2
6
Continuous
62
0
10
24.33079810
20
9.43912929
30
0
11
16.88496369
21
16.88496369
31
0
0
LINE
8
2
6
Continuous
62
0
10
16.79000000
20
0.00000000
30
0
11
51.00000000
21
0.00000000
31
0
0
ARC
8
2
6
Continuous
62
0
10
0.00000000
20
0.00000000
30
0
40
51.00000000
50
0.00000000
51
90.00000000
0
LINE
8
2
6
Continuous
62
0
10
0.00000000
20
51.00000000
30
0
11
0.00000000
21
16.79000000
31
0
0
ARC
8
2
6
Continuous
62
0
10
0.00000000
20
0.00000000
30
0
40
16.79000000
50
0.00000000
51
90.00000000
0
LINE
8
2
6
Continuous
62
0
10
0.00000000
20
0.00000000
30
0
11
16.79000000
21
0.00000000
31
0
0
ARC
8
2
6
Continuous
62
0
10
0.00000000
20
0.00000000
30
0
40
16.79000000
50
0.00000000
51
90.00000000
0
LINE
8
2
6
Continuous
62
0
10
0.00000000
20
16.79000000
30
0
11
0.00000000
21
0.00000000
31
0
0
ENDSEC
0
SECTION
2
OBJECTS
0
ENDSEC
0
EOF
